REM DIRINDEX 1\2\3,1\2\4,1\2\5,1\2\6
REM DIRNAME cjc157,folder01,folder02,folder03,folder04,folder05
TITLE ""
FILE "111 111.mp3" MP3
  TRACK 01 AUDIO
    TITLE "0:"
    INDEX 01 00:00:00
  TRACK 02 AUDIO
    TITLE "3:cjc157_4111"
    INDEX 01 00:00:09
  TRACK 03 AUDIO
    TITLE "0:"
    INDEX 01 00:01:34
  TRACK 04 AUDIO
    TITLE "4:cjc157_4112"
    INDEX 01 00:02:04
  TRACK 05 AUDIO
    TITLE "0:"
    INDEX 01 00:03:04
  TRACK 06 AUDIO
    TITLE "5:cjc157_4113"
    INDEX 01 00:03:49
  TRACK 07 AUDIO
    TITLE "0:"
    INDEX 01 00:05:71
  TRACK 08 AUDIO
    TITLE "5:cjc157_4114"
    INDEX 01 00:06:39
  TRACK 09 AUDIO
    TITLE "0:"
    INDEX 01 00:08:46
  TRACK 10 AUDIO
    TITLE "5:cjc157_4115"
    INDEX 01 00:09:10
  TRACK 11 AUDIO
    TITLE "0:"
    INDEX 01 00:11:48
  TRACK 12 AUDIO
    TITLE "5:cjc157_4116"
    INDEX 01 00:12:20
  TRACK 13 AUDIO
    TITLE "0:"
    INDEX 01 00:15:66
  TRACK 14 AUDIO
    TITLE "3:cjc157_4117"
    INDEX 01 00:16:36
  TRACK 15 AUDIO
    TITLE "0:"
    INDEX 01 00:18:07
  TRACK 16 AUDIO
    TITLE "4:cjc157_4118"
    INDEX 01 00:18:52
  TRACK 17 AUDIO
    TITLE "0:"
    INDEX 01 00:19:58
  TRACK 18 AUDIO
    TITLE "5:cjc157_4119"
    INDEX 01 00:20:32
  TRACK 19 AUDIO
    TITLE "0:"
    INDEX 01 00:23:16
  TRACK 20 AUDIO
    TITLE "5:cjc157_4120"
    INDEX 01 00:23:57
  TRACK 21 AUDIO
    TITLE "0:"
    INDEX 01 00:25:72
  TRACK 22 AUDIO
    TITLE "3:cjc157_4121"
    INDEX 01 00:26:46
  TRACK 23 AUDIO
    TITLE "0:"
    INDEX 01 00:27:61
  TRACK 24 AUDIO
    TITLE "4:cjc157_4122"
    INDEX 01 00:28:27
  TRACK 25 AUDIO
    TITLE "0:"
    INDEX 01 00:29:38
  TRACK 26 AUDIO
    TITLE "5:cjc157_4123"
    INDEX 01 00:30:03
  TRACK 27 AUDIO
    TITLE "0:"
    INDEX 01 00:33:17
  TRACK 28 AUDIO
    TITLE "3:cjc157_4124"
    INDEX 01 00:33:60
  TRACK 29 AUDIO
    TITLE "0:"
    INDEX 01 00:35:12
  TRACK 30 AUDIO
    TITLE "4:cjc157_4125"
    INDEX 01 00:35:57
  TRACK 31 AUDIO
    TITLE "0:"
    INDEX 01 00:36:66
  TRACK 32 AUDIO
    TITLE "5:cjc157_4126"
    INDEX 01 00:37:44
  TRACK 33 AUDIO
    TITLE "0:"
    INDEX 01 00:39:29
  TRACK 34 AUDIO
    TITLE "3:cjc157_4127"
    INDEX 01 00:39:74
  TRACK 35 AUDIO
    TITLE "0:"
    INDEX 01 00:41:53
  TRACK 36 AUDIO
    TITLE "4:cjc157_4128"
    INDEX 01 00:42:25
  TRACK 37 AUDIO
    TITLE "0:"
    INDEX 01 00:43:40
  TRACK 38 AUDIO
    TITLE "5:cjc157_4129"
    INDEX 01 00:44:11
  TRACK 39 AUDIO
    TITLE "0:"
    INDEX 01 00:46:53
  TRACK 40 AUDIO
    TITLE "5:cjc157_4130"
    INDEX 01 00:47:30
  TRACK 41 AUDIO
    TITLE "0:"
    INDEX 01 00:49:51
  TRACK 42 AUDIO
    TITLE "3:cjc157_4131"
    INDEX 01 00:50:29
  TRACK 43 AUDIO
    TITLE "0:"
    INDEX 01 00:51:56
  TRACK 44 AUDIO
    TITLE "4:cjc157_4132"
    INDEX 01 00:52:26
  TRACK 45 AUDIO
    TITLE "0:"
    INDEX 01 00:53:35
  TRACK 46 AUDIO
    TITLE "5:cjc157_4133"
    INDEX 01 00:54:09
  TRACK 47 AUDIO
    TITLE "0:"
    INDEX 01 00:56:12
  TRACK 48 AUDIO
    TITLE "5:cjc157_4134"
    INDEX 01 00:56:55
  TRACK 49 AUDIO
    TITLE "0:"
    INDEX 01 00:58:48
  TRACK 50 AUDIO
    TITLE "3:cjc157_4135"
    INDEX 01 00:59:22
  TRACK 51 AUDIO
    TITLE "0:"
    INDEX 01 01:00:39
  TRACK 52 AUDIO
    TITLE "4:cjc157_4136"
    INDEX 01 01:01:09
  TRACK 53 AUDIO
    TITLE "0:"
    INDEX 01 01:02:12
  TRACK 54 AUDIO
    TITLE "5:cjc157_4137"
    INDEX 01 01:02:73
  TRACK 55 AUDIO
    TITLE "0:"
    INDEX 01 01:04:72
  TRACK 56 AUDIO
    TITLE "5:cjc157_4138"
    INDEX 01 01:05:40
  TRACK 57 AUDIO
    TITLE "0:"
    INDEX 01 01:08:01
  TRACK 58 AUDIO
    TITLE "5:cjc157_4139"
    INDEX 01 01:08:50
  TRACK 59 AUDIO
    TITLE "0:"
    INDEX 01 01:10:26
  TRACK 60 AUDIO
    TITLE "3:cjc157_4140"
    INDEX 01 01:10:73
  TRACK 61 AUDIO
    TITLE "0:"
    INDEX 01 01:12:42
  TRACK 62 AUDIO
    TITLE "4:cjc157_4141"
    INDEX 01 01:13:14
  TRACK 63 AUDIO
    TITLE "0:"
    INDEX 01 01:14:17
  TRACK 64 AUDIO
    TITLE "5:cjc157_4142"
    INDEX 01 01:14:63
  TRACK 65 AUDIO
    TITLE "0:"
    INDEX 01 01:16:50
  TRACK 66 AUDIO
    TITLE "5:cjc157_4143"
    INDEX 01 01:17:26
  TRACK 67 AUDIO
    TITLE "0:"
    INDEX 01 01:19:01
  TRACK 68 AUDIO
    TITLE "5:cjc157_4144"
    INDEX 01 01:19:48
  TRACK 69 AUDIO
    TITLE "0:"
    INDEX 01 01:20:51
  TRACK 70 AUDIO
    TITLE "3:cjc157_4145"
    INDEX 01 01:21:23
  TRACK 71 AUDIO
    TITLE "0:"
    INDEX 01 01:22:70
  TRACK 72 AUDIO
    TITLE "4:cjc157_4146"
    INDEX 01 01:23:42
  TRACK 73 AUDIO
    TITLE "0:"
    INDEX 01 01:24:51
  TRACK 74 AUDIO
    TITLE "5:cjc157_4147"
    INDEX 01 01:25:23
  TRACK 75 AUDIO
    TITLE "0:"
    INDEX 01 01:27:55
  TRACK 76 AUDIO
    TITLE "5:cjc157_4148"
    INDEX 01 01:28:29
  TRACK 77 AUDIO
    TITLE "0:"
    INDEX 01 01:30:20
  TRACK 78 AUDIO
    TITLE "3:cjc157_4149"
    INDEX 01 01:30:71
  TRACK 79 AUDIO
    TITLE "0:"
    INDEX 01 01:32:37
  TRACK 80 AUDIO
    TITLE "4:cjc157_4150"
    INDEX 01 01:33:05
  TRACK 81 AUDIO
    TITLE "0:"
    INDEX 01 01:34:16
  TRACK 82 AUDIO
    TITLE "5:cjc157_4151"
    INDEX 01 01:34:63
  TRACK 83 AUDIO
    TITLE "0:"
    INDEX 01 01:36:47
  TRACK 84 AUDIO
    TITLE "5:cjc157_4152"
    INDEX 01 01:37:21
  TRACK 85 AUDIO
    TITLE "0:"
    INDEX 01 01:39:08
